<svg width="82" height="82" viewBox="0 0 82 82" fill="none" xmlns="http://www.w3.org/2000/svg">
<g clip-path="url(#clip0_119_510)">
<path d="M31.8443 56.3349C31.5448 56.7538 31.2557 57.1814 30.9458 57.5916C29.9382 58.9228 28.3611 59.2794 26.8653 58.516C26.5571 58.3585 26.2559 58.1889 25.9599 58.0106C24.3238 57.0169 23.872 55.2235 24.8986 53.6222C27.4002 49.7152 29.9227 45.822 32.4347 41.9218C33.1151 40.8658 34.0915 40.3465 35.3362 40.3448C39.0861 40.3396 42.8342 40.3431 46.5841 40.3448C47.8998 40.3448 48.9057 40.9074 49.6207 42.0136C52.0911 45.8375 54.5737 49.6529 57.0425 53.4803C58.1556 55.2079 57.7176 57.0152 55.9552 58.0625C55.6575 58.2391 55.3597 58.4156 55.0481 58.5662C53.644 59.2466 52.0478 58.8709 51.0974 57.6332C50.7702 57.2056 50.4724 56.7555 50.05 56.1583C50.0206 56.5824 49.9894 56.8213 49.9877 57.0619C49.9825 58.677 49.9721 60.2921 49.9877 61.9072C50.0015 63.1882 49.5376 64.1819 48.4486 64.9124C48.2166 65.0682 48.0816 65.5235 48.0799 65.842C48.0556 69.7352 48.0643 73.6284 48.0643 77.5199C48.0643 80.4836 46.5529 81.9948 43.596 81.9965C41.7505 81.9965 39.905 82.0069 38.0595 81.9948C35.5699 81.9775 33.9564 80.3607 33.9495 77.861C33.9374 73.8812 33.9391 69.9014 33.9547 65.9234C33.9564 65.4006 33.8699 65.0405 33.3643 64.7289C32.407 64.1403 32.0244 63.1882 32.0261 62.0752C32.0261 60.1796 32.0261 58.2841 32.0261 56.3885L31.8461 56.3383L31.8443 56.3349ZM40.9818 42.9085C39.1934 42.9085 37.4033 42.886 35.6167 42.9293C35.267 42.938 34.7753 43.1059 34.6022 43.3673C32.0832 47.1947 29.6041 51.0498 27.1319 54.9102C27.0159 55.0902 26.9588 55.4399 27.0557 55.6043C27.5578 56.4508 28.6242 56.4543 29.1903 55.6442C31.0237 53.0216 32.8519 50.3938 34.6922 47.7764C35.2462 46.9904 35.9733 46.8121 36.6104 47.264C37.2544 47.7192 37.3289 48.4446 36.787 49.2426C36.1863 50.1237 35.5405 50.9754 34.9675 51.8738C34.7649 52.1906 34.616 52.6044 34.6126 52.9765C34.5849 55.9177 34.6126 58.8605 34.5849 61.8034C34.5779 62.5149 34.8342 62.7936 35.5353 62.7901C39.1709 62.778 42.8048 62.7745 46.4404 62.7918C47.2004 62.7953 47.4289 62.4785 47.422 61.7445C47.3908 58.8034 47.422 55.8605 47.3943 52.9177C47.3908 52.5455 47.2437 52.13 47.0411 51.8133C46.4213 50.8421 45.7236 49.9212 45.0935 48.9552C44.6676 48.3026 44.8078 47.6084 45.3757 47.193C45.9729 46.755 46.6897 46.8814 47.2004 47.5202C47.3441 47.7002 47.4635 47.8975 47.5951 48.088C49.3835 50.6725 51.1943 53.2414 52.9481 55.8484C53.5956 56.8126 54.1184 56.0977 54.6845 55.838C55.3459 55.5351 55.0515 55.1162 54.7919 54.7146C52.3785 50.9893 49.979 47.2553 47.5259 43.5542C47.3077 43.2236 46.7537 42.9553 46.3452 42.9397C44.5585 42.8739 42.7684 42.912 40.9801 42.912L40.9818 42.9085ZM42.2733 79.4224C42.7892 79.4224 43.2116 79.4224 43.6358 79.4224C45.1021 79.4207 45.4934 79.0398 45.4934 77.5996C45.4951 73.8241 45.4934 70.0486 45.4934 66.2713C45.4934 65.9909 45.4934 65.7122 45.4934 65.4179H36.51C36.51 69.2384 36.5671 72.9827 36.4927 76.7236C36.4356 79.6336 37.0779 79.4484 39.3077 79.4172C39.4168 79.4172 39.5275 79.3843 39.7336 79.3514C39.7336 78.9152 39.7336 78.4911 39.7336 78.067C39.7336 74.8385 39.7266 71.61 39.7405 68.3832C39.744 67.4571 40.2166 66.9516 40.9956 66.9482C41.7747 66.9447 42.2317 67.4519 42.2698 68.3694C42.2802 68.5996 42.2733 68.8299 42.2733 69.0618C42.2733 72.1743 42.2733 75.2868 42.2733 78.4011V79.4241V79.4224Z" fill="#3C251F"/>
<path d="M53.2979 28.8763C52.6643 27.1435 52.0981 25.5509 51.4818 23.9756C51.4212 23.8215 51.0646 23.7055 50.8447 23.7055C44.2955 23.6917 37.7445 23.69 31.1952 23.7073C30.958 23.7073 30.5754 23.8509 30.5079 24.0241C29.8968 25.5716 29.341 27.1417 28.7299 28.8157H33.2173C33.0147 29.7107 32.8347 30.5035 32.6339 31.3933C31.2921 31.3933 29.9435 31.4227 28.5966 31.3795C27.9838 31.3604 27.6946 31.5543 27.48 32.1498C25.9496 36.4048 24.3828 40.646 22.8022 44.882C22.6585 45.2663 22.4126 45.7752 22.0906 45.8912C21.6734 46.0418 21.0571 45.9985 20.6675 45.7839C20.098 45.4688 20.1032 44.8318 20.3213 44.2397C21.1142 42.0759 21.9054 39.912 22.7 37.7499C27.1424 25.6669 31.5847 13.5838 36.0271 1.50084C36.5032 0.205986 37.0554 -0.211206 37.8882 0.0900034C38.7555 0.403331 38.9096 1.08365 38.4214 2.42005C37.9487 3.71144 37.4796 5.00457 36.9914 6.34443H45.0191C44.4894 4.90416 43.9804 3.53314 43.4835 2.15692C43.3866 1.88861 43.2758 1.60644 43.2654 1.32773C43.2411 0.623179 43.6289 0.166171 44.3007 0.0380707C45.033 -0.102148 45.5194 0.282154 45.7705 0.953817C46.5443 3.03113 47.3095 5.11363 48.0748 7.1944C52.5673 19.4124 57.0581 31.6305 61.549 43.8485C61.5888 43.9558 61.6234 44.0666 61.6598 44.1757C61.9471 45.0378 61.7082 45.7215 61.0279 45.995C60.2956 46.2893 59.6013 45.9431 59.2741 45.0724C58.4847 42.9691 57.7177 40.8589 56.9404 38.7504C56.1337 36.5606 55.2992 34.3829 54.5409 32.1758C54.3193 31.5318 53.999 31.3518 53.3585 31.3743C52.0358 31.421 50.7114 31.3881 49.3818 31.3881C49.1845 30.5416 49.0027 29.7626 48.7949 28.8694H53.2996L53.2979 28.8763ZM31.5778 21.0777H50.4275C49.9116 19.66 49.4372 18.3097 48.9127 16.9802C48.8469 16.8141 48.5179 16.6548 48.3102 16.6548C43.4402 16.6375 38.572 16.6375 33.702 16.6548C33.4925 16.6548 33.1619 16.8106 33.0961 16.9751C32.5715 18.3045 32.0972 19.6548 31.5778 21.0777ZM47.848 14.0461C47.2438 12.3929 46.7071 10.8764 46.1202 9.38076C46.0457 9.19034 45.7133 8.98608 45.4987 8.98434C42.5019 8.95838 39.5051 8.96184 36.5084 8.97742C36.3179 8.97742 36.008 9.08475 35.9561 9.21977C35.345 10.7899 34.7719 12.3738 34.1556 14.0478H47.848V14.0461Z" fill="#3C251F"/>
<path d="M25.7764 21.9606C24.1006 20.5204 22.5147 19.158 20.7645 17.6537C20.5515 17.9531 20.3992 18.2422 20.1793 18.4638C16.2719 22.383 12.3558 26.2953 8.44152 30.2075C8.27878 30.3703 8.11605 30.5347 7.95331 30.6974C7.17425 31.466 6.42463 31.5786 5.8464 31.0142C5.2699 30.4516 5.36858 29.6605 6.11993 28.9075C7.74902 27.2751 9.37812 25.6426 11.0159 24.0189C11.2184 23.8181 11.4729 23.6657 11.7413 23.4632C10.616 22.4661 9.61357 21.5763 8.5125 20.6C7.29717 21.6179 5.77888 22.8885 4.26058 24.1591C3.57501 24.7321 2.90329 25.3207 2.20388 25.8781C1.51311 26.4286 0.770412 26.3714 0.294322 25.769C-0.164456 25.1856 -0.0900127 24.4794 0.552276 23.9358C3.01409 21.8498 5.4863 19.7725 7.96543 17.7056C8.69082 17.0997 9.24654 17.1516 9.94943 17.8025C11.1942 18.9554 12.4459 20.1014 13.7426 21.2941C15.5569 19.4782 17.5288 17.5013 19.5024 15.5279C20.5481 14.4823 21.0051 14.4685 22.1287 15.4396C23.4808 16.6081 24.8242 17.787 26.1953 18.9312C26.5797 19.2532 26.7407 19.525 26.5052 20.0235C26.2282 20.6121 26.0413 21.2439 25.7781 21.9606H25.7764Z" fill="#3C251F"/>
<path d="M73.3992 20.51C72.3155 21.4673 71.3252 22.3432 70.2519 23.2901C71.6195 24.649 72.9041 25.9248 74.187 27.2006C74.76 27.7702 75.333 28.3397 75.9009 28.9144C76.6418 29.6657 76.7353 30.4759 76.1519 31.0263C75.5875 31.5578 74.824 31.4591 74.1039 30.739C70.0216 26.6605 65.9428 22.5804 61.8657 18.4967C61.6424 18.2734 61.4572 18.0103 61.1992 17.7004C59.5199 19.1424 57.9306 20.5065 56.2375 21.9624C55.9345 21.1453 55.6229 20.413 55.4134 19.6514C55.365 19.4731 55.6108 19.1476 55.8012 18.9797C57.2295 17.7195 58.6733 16.48 60.1189 15.2405C60.9517 14.5273 61.5212 14.5394 62.3003 15.3132C64.3449 17.3455 66.3791 19.3917 68.2869 21.3011C69.4191 20.2676 70.5514 19.293 71.6161 18.2492C72.8833 17.0063 73.1499 16.9578 74.4899 18.0761C76.7907 20.001 79.1071 21.9087 81.3629 23.8839C81.7074 24.1851 81.9308 24.8256 81.8961 25.2878C81.8719 25.6184 81.3612 26.1031 81.0028 26.1672C80.5995 26.2399 80.0385 26.0287 79.6957 25.7534C77.897 24.308 76.1467 22.8037 74.3791 21.3201C74.0052 21.0068 73.6312 20.6969 73.4027 20.5065L73.3992 20.51Z" fill="#3C251F"/>
<path d="M46.7503 31.9992C46.7572 35.2139 44.2106 37.7759 41.0043 37.7793C37.7998 37.7845 35.248 35.2191 35.2566 32.0044C35.2653 28.8296 37.7946 26.2849 40.9558 26.2711C44.1742 26.2572 46.7416 28.795 46.7503 31.9975V31.9992ZM41.0147 28.8435C39.2333 28.84 37.8275 30.2197 37.8102 31.9923C37.7929 33.7823 39.261 35.2606 41.0372 35.2364C42.7892 35.2139 44.2019 33.7736 44.1985 32.0148C44.195 30.2456 42.791 28.8469 41.0147 28.8435Z" fill="#3C251F"/>
<path d="M6.87127 9.81183C6.88685 9.66815 6.8678 9.51062 6.92147 9.38425C7.57934 7.85743 6.99592 6.77204 5.73211 5.88745C5.2162 5.52565 4.92189 4.92323 5.2439 4.3814C5.48455 3.97633 6.05585 3.51413 6.48001 3.51413C8.17142 3.51759 9.16515 2.77322 9.71742 1.19447C9.85072 0.815357 10.4861 0.368736 10.8704 0.386047C11.3032 0.40682 11.9455 0.832668 12.0909 1.23082C12.6501 2.7611 13.5971 3.51586 15.2678 3.50893C15.7075 3.5072 16.3013 3.9971 16.5523 4.42295C16.8692 4.96305 16.5558 5.57066 16.0364 5.92034C14.7674 6.77377 14.2948 7.84704 14.8488 9.34444C15.0652 9.93128 14.9873 10.5545 14.3987 10.9717C13.8101 11.3871 13.2024 11.2538 12.7142 10.8609C11.3915 9.79452 10.197 10.1459 8.89335 10.9474C7.85115 11.5879 6.84876 10.9595 6.87127 9.81356V9.81183ZM11.7689 7.36061C11.9403 6.82397 12.1152 6.27348 12.271 5.78012C11.8503 5.4668 11.3482 5.09461 10.905 4.7657C10.4428 5.10327 9.94248 5.47199 9.54083 5.76627C9.69838 6.32195 9.86111 6.89668 9.99269 7.36061H11.7672H11.7689Z" fill="#3C251F"/>
<path d="M67.0767 9.7841C67.165 9.23188 67.2083 8.6208 67.3745 8.04435C67.5286 7.50598 67.3537 7.184 66.9607 6.85856C66.5401 6.51061 66.1419 6.12977 65.7714 5.72815C65.001 4.89377 65.3247 3.80318 66.4223 3.53659C66.895 3.42061 67.3901 3.31155 67.8714 3.32713C68.7128 3.35656 69.1057 2.89955 69.3827 2.20192C69.542 1.80204 69.7428 1.41601 69.9644 1.04556C70.5271 0.103843 71.7978 0.00343984 72.1718 0.98843C72.8366 2.7351 73.948 3.48985 75.7987 3.57295C76.898 3.62315 77.3083 5.01668 76.4254 5.70046C75.0335 6.77719 74.5955 7.94568 75.0768 9.67677C75.404 10.8522 74.2077 11.6589 73.1776 10.9699C71.7268 9.99875 70.4786 10.0005 69.0365 10.9751C68.086 11.6173 67.0456 10.9232 67.0767 9.7841ZM71.1105 4.75874C70.6569 5.09804 70.1583 5.47022 69.7532 5.77316C69.9073 6.31499 70.0735 6.89145 70.2068 7.36057H71.9744C72.1596 6.80662 72.3449 6.24748 72.4903 5.80952C72.0177 5.44945 71.5381 5.08419 71.1105 4.75874Z" fill="#3C251F"/>
<path d="M19.6097 26.1897C18.7475 27.1227 17.9511 27.9952 17.1427 28.8538C16.5021 29.5341 15.7282 29.6293 15.1673 29.1187C14.577 28.5803 14.5943 27.8619 15.2487 27.1418C16.3151 25.9681 17.3885 24.8013 18.4757 23.645C19.2011 22.8729 19.8572 22.8642 20.6363 23.5896C21.0587 23.9825 21.4742 24.3824 21.8776 24.7944C22.5562 25.4868 22.6116 26.2087 22.0472 26.773C21.5175 27.3028 20.8094 27.2629 20.129 26.664C19.9784 26.5324 19.833 26.3957 19.6097 26.1914V26.1897Z" fill="#3C251F"/>
<path d="M62.4094 26.2018C62.1254 26.4493 61.9038 26.6726 61.6545 26.8578C61.059 27.2975 60.4548 27.2698 59.9458 26.7436C59.4663 26.2485 59.4057 25.6288 59.8662 25.106C60.434 24.462 61.0538 23.8509 61.7203 23.3091C62.257 22.8711 62.8854 22.9698 63.3563 23.4649C64.5647 24.7338 65.7558 26.0217 66.921 27.3304C67.4369 27.9103 67.3745 28.6184 66.8569 29.1083C66.3427 29.5947 65.5619 29.5739 65.0097 29.0009C64.1337 28.0938 63.2923 27.1539 62.4111 26.2018H62.4094Z" fill="#3C251F"/>
<path d="M2.56565 14.1119C2.55527 14.7922 1.97357 15.3669 1.29319 15.3669C0.579925 15.3669 -0.0260077 14.735 0.0120795 14.0288C0.0484354 13.3536 0.664756 12.7858 1.33301 12.8101C2.01339 12.836 2.57777 13.4298 2.56565 14.1101V14.1119Z" fill="#3C251F"/>
<path d="M81.9983 14.0565C82.0191 14.7281 81.453 15.334 80.7743 15.3652C80.0939 15.3981 79.4897 14.8528 79.4447 14.1707C79.398 13.4575 79.9883 12.8205 80.7016 12.8101C81.3681 12.8014 81.9775 13.3865 81.9983 14.0565Z" fill="#3C251F"/>
<path d="M26.8948 1.40047C26.8272 2.08772 26.2161 2.60704 25.534 2.55338C24.8173 2.49625 24.2944 1.8471 24.3793 1.12004C24.4589 0.44145 25.1047 -0.0726834 25.7712 0.0104089C26.4498 0.0952323 26.9623 0.72708 26.8948 1.40047Z" fill="#3C251F"/>
<path d="M57.6363 1.25503C57.6501 1.9492 57.11 2.52738 56.4244 2.55508C55.7077 2.58451 55.0948 1.98555 55.1035 1.26715C55.1121 0.593757 55.7025 0.00345578 56.3707 0.00172469C57.0494 -0.00173749 57.6242 0.567791 57.6363 1.25503Z" fill="#3C251F"/>
</g>
<defs>
<clipPath id="clip0_119_510">
<rect width="82" height="82" fill="white"/>
</clipPath>
</defs>
</svg>
