<svg width="67" height="73" viewBox="0 0 67 73" fill="none" xmlns="http://www.w3.org/2000/svg">
<g clip-path="url(#clip0_117_475)">
<path d="M53.2801 55.8959C56.6006 56.0539 58.7028 57.6646 59.6297 60.8218C60.6388 60.8218 61.6512 60.8152 62.662 60.8218C65.0787 60.8399 66.9538 62.6332 66.9966 64.9596C67.041 67.3288 65.2911 69.29 62.8991 69.3294C58.7028 69.3969 54.5033 69.3492 50.3071 69.3459C50.2313 69.3459 50.154 69.3064 50.0255 69.2702V66.9076C50.3268 66.9076 50.6198 66.9076 50.9129 66.9076C54.7815 66.9076 58.6502 66.9126 62.5188 66.9043C63.8391 66.901 64.6589 66.0685 64.5486 64.8807C64.463 63.9659 63.7535 63.293 62.7789 63.2749C61.4619 63.2486 60.1449 63.2749 58.8279 63.2634C57.7381 63.2551 57.3546 62.8915 57.264 61.8139C57.0731 59.5616 55.3511 58.247 52.7352 58.4099C52.6579 58.6024 52.5673 58.8228 52.4834 59.0433C49.4658 66.9257 43.8225 71.7644 35.4366 72.768C26.5881 73.8276 19.7513 70.2047 15.0184 62.6678C14.7089 62.1759 14.4093 62.0064 13.8545 62.013C11.4412 62.036 10.0501 63.2321 9.75377 65.5947C9.63359 66.5457 9.26484 66.8945 8.31331 66.9027C7.05065 66.9142 5.78964 66.901 4.52698 66.9076C3.26761 66.9142 2.44614 67.6463 2.45437 68.7421C2.46261 69.8345 3.2742 70.5436 4.55332 70.5453C9.19076 70.5502 13.8265 70.5469 18.464 70.5469C18.7636 70.5469 19.0649 70.5469 19.4418 70.5469V72.949C19.2756 72.9638 19.1175 72.9918 18.9611 72.9918C14.0504 72.9934 9.13808 73.0099 4.22737 72.9852C2.05105 72.9737 0.340612 71.3909 0.0360592 69.2028C-0.235569 67.2531 1.08965 65.1521 3.05525 64.6767C4.02323 64.443 5.06859 64.4447 6.07444 64.4809C6.9881 64.5138 7.46715 64.3476 7.84578 63.3539C8.69359 61.1295 10.46 59.9103 12.847 59.6405C13.0347 59.6191 13.2224 59.5928 13.4117 59.5681C13.089 58.168 12.6956 56.8057 12.4668 55.4155C10.8074 45.3054 17.068 35.3911 26.9404 32.5316C27.8343 32.2717 28.0961 31.9064 28.0418 31.0246C27.9644 29.7413 28.0171 28.4481 28.0237 27.1599C28.0302 25.8799 28.4105 25.5097 29.7143 25.5015C30.3399 25.4982 30.9671 25.5015 31.6454 25.5015V17.0728H24.3657C24.3657 18.8431 24.3657 20.5904 24.3657 22.3376C24.3657 24.0339 24.1073 24.2938 22.4265 24.2938C17.1585 24.2938 11.8906 24.2938 6.62263 24.2938C5.25626 24.2938 4.90232 23.95 4.90068 22.6157C4.89903 18.8596 4.89903 15.1018 4.90068 11.3457C4.90068 10.0574 5.27766 9.67575 6.55679 9.6741C9.2138 9.67081 11.8708 9.6741 14.6332 9.6741V4.79428C14.6332 2.46624 14.7056 2.39385 17.0318 2.39385C21.5869 2.39385 26.1404 2.39385 30.6955 2.39385C30.9918 2.39385 31.2881 2.39385 31.6701 2.39385V0H34.1081V25.5031C34.9049 25.5031 35.6078 25.4899 36.3124 25.5064C37.338 25.5294 37.771 25.9473 37.7842 26.9674C37.8039 28.4744 37.8072 29.9831 37.7809 31.4918C37.771 32.0085 37.9175 32.2306 38.4525 32.3951C46.468 34.8482 51.4199 40.1706 53.2357 48.3524C53.7806 50.8104 53.7493 53.3046 53.2818 55.8959H53.2801ZM32.8965 70.5486C42.9764 70.5486 51.1664 62.3815 51.1796 52.3191C51.1927 42.2584 43.0093 34.0436 32.9508 34.0239C22.8495 34.0025 14.6299 42.2107 14.6332 52.3109C14.6381 62.3848 22.8133 70.5502 32.8965 70.5486ZM31.6437 14.5293V4.87654H17.1322V14.5276H31.6437V14.5293ZM7.39801 12.1486V21.7947H20.1053C19.8452 21.5134 19.6707 21.3143 19.4846 21.1267C18.0689 19.7102 16.6235 18.3232 15.2555 16.8622C14.9196 16.5052 14.7023 15.9244 14.6612 15.4276C14.5723 14.3483 14.6332 13.2575 14.6332 12.1486H7.39801ZM35.2984 31.6498V27.9957H30.5276V31.6498H35.2984ZM21.8635 19.906V17.086H19.0896C20.0081 18.0205 20.9185 18.9451 21.8635 19.906Z" fill="#3C251F"/>
<path d="M25.0211 65.9665C25.3981 65.3084 25.7767 64.6503 26.1915 63.9281C30.0289 65.9599 33.9683 66.3055 37.9967 64.6717C40.9517 63.474 43.1856 61.4322 44.6935 58.627C47.7457 52.9558 46.2805 45.8549 41.2562 41.8668C36.2023 37.8573 29.0593 37.9873 24.1996 42.1366C19.3202 46.3041 17.6756 53.9759 22.1385 60.3529C21.5409 60.8054 20.9401 61.2627 20.3392 61.7185C16.8162 57.8307 15.2029 49.2392 20.4248 42.548C25.6894 35.8008 35.4944 34.473 42.3542 39.598C49.2487 44.7493 50.8011 54.4448 45.8212 61.4371C40.5763 68.803 31.1039 69.693 25.0194 65.9665H25.0211Z" fill="#3C251F"/>
<path d="M31.8101 45.0504H34.1445C33.8152 46.0935 34.4606 46.4949 35.1849 46.9704C36.1298 47.5907 36.5529 48.5729 36.5397 49.8447C35.8368 49.8447 35.1602 49.8743 34.4885 49.8233C34.3338 49.8118 34.1461 49.5436 34.0655 49.356C33.8037 48.7424 33.2934 48.517 32.7353 48.6782C32.3567 48.7884 31.9122 49.129 31.7657 49.4794C31.5336 50.0322 31.9089 50.4501 32.4406 50.7068C33.2292 51.0885 34.0243 51.4603 34.7849 51.8947C36.9892 53.15 37.2032 56.2398 35.124 57.6597C34.4079 58.1483 33.8646 58.5563 34.1478 59.5517H31.7509C31.7327 59.3131 31.6817 59.096 31.7064 58.887C31.7657 58.4066 31.5533 58.1779 31.1269 57.9607C29.8774 57.3257 29.2453 56.1723 29.3128 54.7903C29.4395 54.7722 29.5712 54.7393 29.7029 54.7377C30.3302 54.7327 30.9574 54.7344 31.6389 54.7344C31.7344 55.6294 32.2381 56.0851 33.0827 55.9042C33.4448 55.8268 33.9519 55.4846 34.0111 55.1868C34.0803 54.8331 33.8498 54.2425 33.5518 54.0319C32.89 53.5613 32.1081 53.2602 31.3722 52.8966C30.0898 52.2616 29.3177 51.2695 29.2749 49.8085C29.2321 48.3162 29.9087 47.1958 31.2488 46.5805C32.0324 46.2202 31.4908 45.544 31.8118 45.0504H31.8101Z" fill="#3C251F"/>
<path d="M24.4186 51.1165H26.7562V53.456H24.4186V51.1165Z" fill="#3C251F"/>
<path d="M41.4109 51.1313V53.4659H39.0618V51.1313H41.4109Z" fill="#3C251F"/>
</g>
<defs>
<clipPath id="clip0_117_475">
<rect width="67" height="73" fill="white"/>
</clipPath>
</defs>
</svg>
